# xmcd
#
# Track frame offsets:
#	150
#	16841
#	33146
#	53710
#	67006
#	82062
#	102518
#	115960
#	127829
#	140801
#	151646
#	164278
#	179418
#	190856
#	208315
#
# Disc length: 2949 seconds
#
# Revision: 0
# Processed by: cddbd v1.5.2PL0 Copyright (c) Steve Scherf et al.
# Submitted via: EasyCDDAExtractor 16.0.6.1
#
DISCID=cd0b830f
DTITLE=Kardoso e Klemente  - Amor Bendito
DYEAR=2013
DGENRE=Sertanejo Moda
TTITLE0=que falta que eu sinto de voce
TTITLE1=roupa de lua de mel 
TTITLE2=fliho de Deus
TTITLE3=amor bendito
TTITLE4=ave frida
TTITLE5=velha figueira
TTITLE6=jacaranda
TTITLE7=trovejou daquele lado
TTITLE8=a tecnologia e a naturaza 
TTITLE9=carro de boi
TTITLE10=aurora do mundo
TTITLE11=esquina do adeus 
TTITLE12=os verdes campos da minha terra 
TTITLE13=viver sem ter razao
TTITLE14=machucado de paixao
EXTD=
EXTT0=
EXTT1=
EXTT2=
EXTT3=
EXTT4=
EXTT5=
EXTT6=
EXTT7=
EXTT8=
EXTT9=
EXTT10=
EXTT11=
EXTT12=
EXTT13=
EXTT14=
PLAYORDER=
